# xmcd CD database file
#
# Track frame offsets:
#	150
#	22900
#	52955
#	87027
#	105430
#	134907
#	154777
#	181410
#
# Disc length: 2703 seconds
#
# Revision: 2
# Processed by: cddbd v1.5.2PL0 Copyright (c) Steve Scherf et al.
# Submitted via: CDex 2.09
#
DISCID=5c0a8d08
DTITLE=Big Mama Thornton - The Rising Sun Collection
DYEAR=1994
DGENRE=Blues
TTITLE0=Spoonful
TTITLE1=Rock Me Baby
TTITLE2=Ball And Chain
TTITLE3=Watermelon Man
TTITLE4=Summertime
TTITLE5=Medley - Hound Dog, Walking The Dog
TTITLE6=Sweet Little Angel
TTITLE7=Sassy Mama
EXTD=YEAR: 1994
EXTT0=
EXTT1=
EXTT2=
EXTT3=
EXTT4=
EXTT5=
EXTT6=
EXTT7=
PLAYORDER=
